<?xml version="1.0" encoding="utf-8"?>
<!-- Generator: Adobe Illustrator 16.0.0, SVG Export Plug-In . SVG Version: 6.00 Build 0)  -->
<!DOCTYPE svg PUBLIC "-//W3C//DTD SVG 1.1//EN" "http://www.w3.org/Graphics/SVG/1.1/DTD/svg11.dtd">
<svg version="1.1" xmlns="http://www.w3.org/2000/svg" xmlns:xlink="http://www.w3.org/1999/xlink" x="0px" y="0px" width="810px"
	 height="810px" viewBox="0 0 810 810" style="enable-background:new 0 0 810 810;" xml:space="preserve">
<style type="text/css">
<![CDATA[
	.st0{fill:none;stroke:#8C8C8C;stroke-width:4;stroke-linecap:round;stroke-miterlimit:10;stroke-dasharray:12,12;}
	.st1{fill:#12AB9D;}
	.st2{fill:#ECECEC;}
	.st3{fill:none;stroke:#8C8C8C;stroke-width:4;stroke-linecap:round;stroke-miterlimit:10;}
	.st4{fill:#8C8C8C;}
	.st5{fill:#BCBCBC;}
	.st6{fill:#F8F8F8;}
	.st7{fill:#8C8C8C;stroke:#8C8C8C;stroke-width:2;stroke-miterlimit:10;}
	.st8{display:inline;}
	.st9{display:none;}
	.st10{fill:#0BAB9C;}
	.st11{display:inline;fill:#12AB9D;}
]]>
</style>
<g id="_x31_" class="st9">
	<g class="st8">
		<path class="st4" d="M734.688,562.851l-25.224-25.239c82.489-82.489,82.467-216.725-0.033-299.213l25.257-25.257
			C831.104,309.542,831.104,466.434,734.688,562.851z"/>
		<path class="st4" d="M691.016,256.791l-25.224,25.263c58.382,58.432,58.382,153.476,0,211.875l25.224,25.29
			C763.365,446.835,763.365,329.134,691.016,256.791z"/>
		<path class="st4" d="M645.96,301.83l-25.246,25.263c33.622,33.56,33.622,88.225,0,121.792l25.269,25.256
			C693.471,426.651,693.471,349.341,645.96,301.83z"/>
		<path class="st4" d="M79.297,562.851l25.246-25.239c-82.492-82.489-82.472-216.725,0.039-299.213l-25.285-25.257
			C-17.098,309.542-17.098,466.434,79.297,562.851z"/>
		<path class="st4" d="M122.985,519.207l25.223-25.263c-58.379-58.398-58.379-153.459,0-211.891l-25.223-25.263
			C50.642,329.134,50.642,446.835,122.985,519.207z"/>
		<path class="st4" d="M168.03,474.162l25.263-25.262c-33.583-33.583-33.583-88.204,0.014-121.792l-25.257-25.257
			C120.533,349.341,120.533,426.651,168.03,474.162z"/>
		<path class="st4" d="M572.74,157.862V651.4c0,21.172-17.35,38.516-38.521,38.516H279.846c-21.197,0-38.543-17.344-38.543-38.516
			V157.862c0-21.194,17.347-38.538,38.543-38.538h254.373C555.391,119.324,572.74,136.668,572.74,157.862z"/>
		<path class="st2" d="M361.646,151.774c0,2.562,2.079,4.66,4.682,4.66h81.351c2.601,0,4.665-2.098,4.665-4.66
			c0-2.583-2.064-4.682-4.665-4.682h-81.351C363.744,147.092,361.646,149.19,361.646,151.774z"/>
		<path class="st2" d="M426.283,651.4c0-10.67-8.639-19.286-19.28-19.286s-19.263,8.639-19.263,19.286
			c0,10.636,8.622,19.258,19.263,19.258S426.283,662.036,426.283,651.4z"/>
		<rect x="268.108" y="180.429" class="st2" width="277.813" height="438.164"/>
		<path class="st10" d="M391.732,419.994c19.818,19.671,42.754,38.46,51.761,29.38c12.891-12.985,20.826-24.279,49.437-1.462
			c28.61,22.824,6.758,38.187-5.731,50.776c-14.408,14.514-68.382,1.016-121.877-52.082
			c-53.493-53.097-67.408-106.97-52.988-121.496c12.492-12.583,27.689-34.542,50.717-6.099c23.039,28.432,11.8,36.451-1.094,49.448
			C352.958,377.527,371.914,400.312,391.732,419.994z"/>
	</g>
</g>
<g id="_x32_" class="st9">
	<g class="st8">
		<path class="st4" d="M680.845,634.227v-67.228c0-18.667-15.182-33.849-33.849-33.849H424.134v-68.157h12.979
			c1.419,0,44.124,0.085,86.993,0.181c43.269,0.09,86.706,0.175,88.158,0.175c76.479,0,138.702-62.223,138.702-138.702
			c0-76.474-62.223-138.697-138.702-138.697c-6.785,0-13.515,0.484-20.159,1.458C584.898,86.508,498.885,5,394.194,5
			c-96.701,0-178.761,70.376-195.316,163.676c-77.854,4.386-139.845,69.109-139.845,148.038c0,81.762,66.519,148.28,148.28,148.28
			h178.558v68.157H163.003c-18.667,0-33.848,15.182-33.848,33.849v67.228h38.262v-62.818h218.454v62.818h38.262v-62.818h218.448
			v62.818H680.845z"/>
		<path class="st2" d="M103.186,316.713c0-57.414,46.715-104.128,104.128-104.128c2.815,0,5.8,0.141,9.117,0.428l22.377,1.949
			l1.56-22.406c5.575-80.416,73.146-143.41,153.827-143.41c85.056,0,154.255,69.205,154.255,154.26
			c0,3.902-0.186,8.081-0.574,12.777l-2.911,35.228l32.94-12.855c10.986-4.285,22.553-6.464,34.36-6.464
			c52.138,0,94.556,42.418,94.556,94.555s-42.418,94.555-94.556,94.555c-1.452,0-44.839-0.09-88.063-0.18
			c-42.919-0.085-85.664-0.175-87.089-0.175h-229.8C149.9,420.847,103.186,374.132,103.186,316.713z"/>
		<g>
			<path class="st10" d="M371.164,156.557c0-16.414,13.356-29.771,29.771-29.771c16.414,0,29.771,13.357,29.771,29.771v96.605
				c0,16.415-13.356,29.766-29.771,29.766c-16.415,0-29.771-13.351-29.771-29.766V156.557z"/>
			<path class="st10" d="M400.935,370.743c-16.82,0-30.503-13.684-30.503-30.509c0-16.82,13.683-30.503,30.503-30.503
				c16.825,0,30.509,13.683,30.509,30.503C431.443,357.059,417.76,370.743,400.935,370.743z"/>
		</g>
		<path class="st10" d="M642.154,743.118c14.572,14.461,31.443,28.279,38.065,21.612c9.477-9.556,15.315-17.861,36.354-1.081
			c21.043,16.785,4.978,28.081-4.207,37.339c-10.597,10.676-50.296,0.749-89.634-38.297c-39.344-39.051-49.574-78.664-38.972-89.352
			c9.189-9.252,20.361-25.401,37.3-4.482c16.943,20.907,8.677,26.803-0.806,36.364C613.645,711.889,627.581,728.646,642.154,743.118
			z"/>
		<path class="st4" d="M207.871,662.691H85.403c-10.513,0-19.061,8.21-19.061,18.307v85.365c0,10.096,8.548,18.306,19.061,18.306
			h122.468c10.519,0,19.066-8.21,19.066-18.306v-85.365C226.938,670.901,218.39,662.691,207.871,662.691z M207.871,768.509H85.403
			c-1.549,0-2.9-1.003-2.9-2.146v-74.081l55.392,46.771c1.132,0.952,2.579,1.481,4.065,1.481h9.353c1.487,0,2.934-0.529,4.066-1.481
			l55.397-46.771v74.081C210.777,767.506,209.419,768.509,207.871,768.509z M146.64,724.491l-53.877-45.639h107.749L146.64,724.491z
			"/>
		<g>
			<g id="textsms_1_">
				<path class="st4" d="M453.792,658.626h-97.584c-6.707,0-12.196,5.484-12.196,12.196v109.781l24.393-24.398h85.388
					c6.707,0,12.197-5.484,12.197-12.197v-73.186C465.989,664.11,460.499,658.626,453.792,658.626z M386.705,713.517h-12.202
					v-12.202h12.202V713.517z M411.099,713.517h-12.197v-12.202h12.197V713.517z M435.497,713.517h-12.202v-12.202h12.202V713.517z"
					/>
			</g>
		</g>
	</g>
</g>
<g id="_x33_" class="st9">
	<g class="st8">
		<path class="st4" d="M784.126,224.872H337.083c-14.137,0-27.949,11.458-30.859,25.599l-63.542,309.059
			c-2.904,14.141,6.208,25.6,20.335,25.6h447.047c14.141,0,27.955-11.459,30.859-25.6l63.534-309.059
			C807.368,236.33,798.267,224.872,784.126,224.872z"/>
		<path class="st6" d="M730.65,328.303l-198.398,95.681c-8.555,4.127-18.308,4.127-25.169,0l-159.049-95.681
			c-11.533-6.934-13.109-23.118-3.503-36.081c6.429-8.685,16.556-14.082,26.416-14.082c4.355,0,8.477,1.087,11.914,3.158
			l147.848,88.945l184.434-88.945c4.277-2.07,8.848-3.158,13.216-3.158c9.856,0,17.761,5.391,20.625,14.069
			C753.254,305.171,745.038,321.369,730.65,328.303z"/>
		<path class="st1" d="M75.124,292.359h192.604c10.202,0,18.46-8.255,18.46-18.451s-8.255-18.457-18.46-18.457H75.124
			c-10.189,0-18.454,8.262-18.454,18.457S64.935,292.359,75.124,292.359z"/>
		<path class="st1" d="M216.067,423.371H23.458C13.262,423.371,5,431.64,5,441.834c0,10.183,8.262,18.451,18.457,18.451h192.61
			c10.186,0,18.454-8.256,18.454-18.451C234.521,431.64,226.253,423.371,216.067,423.371z"/>
		<path class="st1" d="M260.352,356.799c0-10.195-8.259-18.463-18.444-18.463h-115.12c-10.188,0-18.444,8.268-18.444,18.463
			c0,10.182,8.255,18.444,18.444,18.444h115.12C252.093,375.243,260.352,366.981,260.352,356.799z"/>
		<path class="st1" d="M190.228,506.262h-61.504c-10.195,0-18.46,8.255-18.46,18.45c0,10.183,8.265,18.464,18.46,18.464h61.504
			c10.198,0,18.457-8.269,18.457-18.464S200.426,506.262,190.228,506.262z"/>
	</g>
</g>
<g id="_x34_" class="st9">
	<g class="st8">
		<path class="st4" d="M209.668,609.681c54.675,0,106.068-21.289,144.727-59.947c19.876-19.877,35.124-43.132,45.287-68.457h63.75
			c0.358-0.593,0.769-1.172,1.237-1.706l38.235-43.874c2.279-2.604,5.547-4.088,8.998-4.088c3.443,0,6.725,1.484,8.99,4.088
			l38.242,43.867c0.469,0.541,0.873,1.12,1.23,1.713h26.967c0.357-0.593,0.762-1.172,1.236-1.713l38.242-43.867
			c2.292-2.604,5.541-4.088,8.991-4.088s6.726,1.484,8.997,4.088l38.236,43.867c0.469,0.547,0.872,1.12,1.23,1.713h34.355
			c5.794,0,11.399-2.025,15.833-5.736l61.699-51.614C801.765,419.238,805,412.312,805,405c0-7.311-3.235-14.238-8.848-18.926
			l-61.699-51.602c-4.434-3.711-10.039-5.749-15.827-5.749l-318.932,0.006c-10.156-25.325-25.404-48.587-45.28-68.463
			c-38.659-38.659-90.059-59.948-144.733-59.948c-54.668,0-106.068,21.289-144.727,59.948S5.007,350.326,5,405
			C5,517.871,96.823,609.688,209.668,609.681z"/>
		<path class="st6" d="M202.429,526.23c66.953,0,121.224-54.277,121.224-121.23c0-66.946-54.271-121.224-121.224-121.224
			S81.205,338.054,81.205,405C81.205,471.953,135.476,526.23,202.429,526.23z"/>
		<g>
			<g>
				<path class="st1" d="M169.62,430.297h-35.742l-8.086,21.973h-11.777l32.988-85.313h9.902l32.461,85.313h-11.777L169.62,430.297z
					 M137.452,420.629h28.711l-14.063-38.848h-0.352L137.452,420.629z"/>
				<path class="st1" d="M212.628,418.051v34.219h-11.543v-85.313h32.637c9.101,0,16.172,2.344,21.211,7.031
					s7.559,10.86,7.559,18.516c0,7.774-2.52,13.975-7.559,18.604s-12.11,6.943-21.211,6.943H212.628z M212.628,408.969h21.094
					c5.781,0,10.097-1.55,12.949-4.65c2.851-3.1,4.277-7.008,4.277-11.727c0-4.718-1.436-8.656-4.307-11.815
					s-7.178-4.738-12.92-4.738h-21.094V408.969z"/>
				<path class="st1" d="M290.147,452.27h-11.602v-85.313h11.602V452.27z"/>
			</g>
		</g>
	</g>
</g>
<g id="_x35_" class="st9">
	<g class="st8">
		<g>
			<path class="st1" d="M576.539,5c-98.022,0-177.487,62.891-177.487,140.477c0,46.227,28.332,87.094,71.863,112.695
				c-4.258,23.344-17.82,50.844-36.773,69.797c46.281-3.453,87.008-16.727,113.688-44.016c9.375,1.211,18.905,2,28.71,2
				c98.039,0,177.5-62.89,177.5-140.476S674.57,5,576.539,5z"/>
			<path class="st6" d="M493.345,173.219c-15.32,0-27.734-12.422-27.734-27.742s12.414-27.734,27.734-27.734
				s27.727,12.414,27.727,27.734S508.665,173.219,493.345,173.219z"/>
			<path class="st6" d="M576.539,173.219c-15.312,0-27.733-12.422-27.733-27.742s12.422-27.734,27.733-27.734
				c15.32,0,27.734,12.414,27.734,27.734S591.859,173.219,576.539,173.219z"/>
			<path class="st6" d="M659.75,173.219c-15.32,0-27.742-12.422-27.742-27.742s12.422-27.734,27.742-27.734
				c15.313,0,27.734,12.414,27.734,27.734S675.063,173.219,659.75,173.219z"/>
		</g>
		<path class="st4" d="M330.942,531.905c64.313,63.852,138.723,124.813,167.957,95.375c41.836-42.148,67.601-78.82,160.444-4.766
			c92.844,74.07,21.945,123.93-18.586,164.781c-46.773,47.117-221.921,3.297-395.542-169C71.622,445.952,26.466,271.148,73.263,224
			c40.547-40.836,89.852-112.094,164.586-19.797c74.773,92.273,38.297,118.296-3.547,160.476
			C205.106,394.093,266.622,468.054,330.942,531.905z"/>
	</g>
</g>
<g id="_x36_" class="st9">
	<g class="st8">
		<path class="st4" d="M668.5,229.029l31.672-31.719l9.418,9.371c8.752,8.752,22.934,8.752,31.584,0
			c8.799-8.697,8.799-22.879,0-31.631l-47.393-47.433c-8.751-8.751-22.927-8.751-31.624,0c-8.751,8.792-8.751,22.92,0,31.672
			l10.467,10.385l-31.141,31.141c-54.266-50.127-124.394-83.201-202.021-90.843V80.892h22.539c20.96,0,37.933-17.013,37.933-37.926
			C499.934,22.013,482.913,5,462.001,5H348.186c-20.96,0-37.973,17.013-37.973,37.966c0,20.96,17.013,37.926,37.973,37.926h24.993
			v28.936h-1.396c-82.143,7.833-155.97,44.078-211.49,98.921l-19.365,20.906C88.487,290.651,56.57,369.769,56.57,456.57
			C56.57,648.982,212.591,805,405,805c192.508,0,348.43-156.018,348.43-348.43C753.471,369.477,721.274,290.08,668.5,229.029z
			 M404.564,745.399c-159.863,0-289.452-129.586-289.452-289.448c0-159.87,129.633-289.449,289.452-289.449
			c159.821,0,289.455,129.579,289.455,289.449C694.02,615.813,564.386,745.399,404.564,745.399z"/>
		<path class="st1" d="M427.498,430.043V247.635l-21.056-33.74l-23.94,33.74v182.408c-13.121,7.738-22.008,21.872-22.008,38.212
			c0,24.561,19.946,44.459,44.465,44.459c24.506,0,44.507-19.898,44.507-44.459C449.514,451.915,440.666,437.781,427.498,430.043z"
			/>
	</g>
</g>
<g id="_x37_" class="st9">
	<g class="st8">
		<g>
			<g>
				<path class="st4" d="M713.548,253.506l-9.622-75.574c-3.3-25.913-25.342-45.087-51.464-45.087h-71
					c-26.122,0-48.185,19.174-51.464,45.087l-9.636,75.72c-0.668,5.292,0.954,11.947,4.483,15.922
					c3.537,4.031,8.605,7.631,13.938,7.631h156.349c5.34,0,10.395-3.69,13.945-7.7C712.601,265.509,714.229,258.805,713.548,253.506
					z"/>
				<path class="st4" d="M616.948,5c30.528,0,55.272,24.722,55.272,55.258c0,30.522-24.744,55.265-55.272,55.265
					c-30.516,0-55.259-24.743-55.259-55.265C561.689,29.723,586.433,5,616.948,5z"/>
			</g>
		</g>
		<g>
			<g>
				<path class="st4" d="M713.548,781.287l-9.629-75.566c-3.3-25.913-25.343-45.087-51.464-45.087h-71
					c-26.129,0-48.185,19.174-51.471,45.087l-9.622,75.72c-0.675,5.291,0.947,11.947,4.483,15.93
					c3.523,4.023,8.605,7.63,13.932,7.63h156.349c5.34,0,10.395-3.689,13.938-7.699
					C712.594,793.304,714.223,786.593,713.548,781.287z"/>
				<path class="st4" d="M616.941,532.795c30.528,0,55.265,24.716,55.265,55.252c0,30.521-24.736,55.266-55.265,55.266
					c-30.516,0-55.259-24.744-55.259-55.266C561.683,557.511,586.426,532.795,616.941,532.795z"/>
			</g>
		</g>
		<path class="st1" d="M214.656,286.542c71.598,0,129.635-58.043,129.635-129.642c0-71.591-58.037-129.635-129.635-129.635
			c-71.599,0-129.635,58.043-129.635,129.635C85.021,228.499,143.057,286.542,214.656,286.542z"/>
		<path class="st1" d="M214.656,799.849c71.598,0,129.635-58.051,129.635-129.648c0-71.585-58.037-129.635-129.635-129.635
			c-71.599,0-129.635,58.05-129.635,129.635C85.021,741.798,143.057,799.849,214.656,799.849z"/>
		<g>
			<g>
				<line class="st3" x1="56" y1="412" x2="62" y2="412"/>
				<line class="st0" x1="74" y1="412" x2="742" y2="412"/>
				<line class="st3" x1="748" y1="412" x2="754" y2="412"/>
			</g>
		</g>
		<g>
			<g>
				<path class="st2" d="M215.122,162.518c0,5.932-1.045,11.426-3.133,16.479c-2.089,5.055-5.013,9.336-8.772,12.845l15.477,14.6
					l-8.459,8.083l-17.294-16.104c-2.34,0.961-4.772,1.681-7.3,2.162c-2.528,0.48-5.128,0.721-7.801,0.721
					c-10.652,0-19.31-3.675-25.972-11.028c-6.664-7.352-9.994-16.604-9.994-27.758V146.29c0-11.111,3.331-20.364,9.994-27.758
					c6.662-7.394,15.32-11.09,25.972-11.09c11.028,0,19.998,3.687,26.912,11.059c6.913,7.374,10.37,16.636,10.37,27.79V162.518z
					 M202.778,146.164c0-8.354-2.256-15.205-6.768-20.552c-4.511-5.347-10.569-8.02-18.171-8.02c-7.186,0-12.918,2.673-17.2,8.02
					c-4.282,5.348-6.422,12.198-6.422,20.552v16.354c0,8.438,2.14,15.331,6.422,20.678c4.282,5.347,10.015,8.02,17.2,8.02
					c7.645,0,13.711-2.663,18.203-7.989c4.49-5.326,6.736-12.229,6.736-20.709V146.164z"/>
				<path class="st2" d="M264.936,199.988h-12.344v-79.201l-18.672,0.25v-8.897l31.016-3.383V199.988z"/>
			</g>
		</g>
		<g>
			<g>
				<path class="st2" d="M215.122,675.825c0,5.932-1.045,11.425-3.133,16.479c-2.089,5.056-5.013,9.337-8.772,12.846l15.477,14.6
					l-8.459,8.083l-17.294-16.104c-2.34,0.961-4.772,1.681-7.3,2.162c-2.528,0.479-5.128,0.72-7.801,0.72
					c-10.652,0-19.31-3.675-25.972-11.027c-6.664-7.352-9.994-16.604-9.994-27.758v-16.229c0-11.111,3.331-20.364,9.994-27.758
					c6.662-7.394,15.32-11.091,25.972-11.091c11.028,0,19.998,3.688,26.912,11.06c6.913,7.373,10.37,16.636,10.37,27.789V675.825z
					 M202.778,659.471c0-8.354-2.256-15.204-6.768-20.552c-4.511-5.347-10.569-8.021-18.171-8.021c-7.186,0-12.918,2.674-17.2,8.021
					c-4.282,5.348-6.422,12.197-6.422,20.552v16.354c0,8.438,2.14,15.33,6.422,20.677c4.282,5.348,10.015,8.021,17.2,8.021
					c7.645,0,13.711-2.663,18.203-7.989c4.49-5.325,6.736-12.228,6.736-20.708V659.471z"/>
				<path class="st2" d="M288.809,713.295h-59.15v-8.514l29.889-33.154c5.347-5.974,8.97-10.715,10.871-14.224
					c1.9-3.509,2.851-7.102,2.851-10.777c0-4.553-1.327-8.386-3.979-11.498c-2.653-3.111-6.172-4.668-10.558-4.668
					c-6.308,0-10.956,1.619-13.942,4.855c-2.987,3.238-4.48,7.78-4.48,13.629h-11.843l-0.125-0.376
					c-0.209-7.854,2.401-14.453,7.832-19.801c5.43-5.347,12.949-8.021,22.558-8.021c8.187,0,14.714,2.393,19.581,7.175
					c4.866,4.783,7.3,10.871,7.3,18.266c0,4.971-1.472,9.952-4.417,14.943c-2.945,4.992-7.07,10.35-12.375,16.072l-23.999,26.067
					l0.125,0.313h43.861V713.295z"/>
			</g>
		</g>
	</g>
</g>
<g id="_x38_" class="st9">
	<g class="st8">
		<g>
			<g>
				<g>
					<path class="st4" d="M185.412,220.35l-8.338-65.491c-2.86-22.456-21.961-39.071-44.597-39.071H70.95
						c-22.637,0-41.756,16.615-44.598,39.071l-8.35,65.617c-0.579,4.585,0.827,10.353,3.885,13.798
						c3.065,3.493,7.457,6.612,12.079,6.612h135.488c4.627,0,9.007-3.198,12.084-6.673
						C184.591,230.751,186.003,224.941,185.412,220.35z"/>
					<path class="st4" d="M101.701,5c26.456,0,47.897,21.424,47.897,47.885c0,26.45-21.442,47.892-47.897,47.892
						c-26.444,0-47.886-21.442-47.886-47.892C53.815,26.424,75.257,5,101.701,5z"/>
				</g>
			</g>
			<g>
				<g>
					<path class="st4" d="M438.158,701.108l-8.345-65.484c-2.859-22.455-21.964-39.071-44.6-39.071h-61.527
						c-22.643,0-41.755,16.616-44.603,39.071l-8.338,65.617c-0.585,4.585,0.82,10.353,3.885,13.792
						c3.053,3.499,7.457,6.612,12.072,6.612h135.491c4.627,0,9.007-3.197,12.078-6.673
						C437.331,711.51,438.743,705.706,438.158,701.108z"/>
					<path class="st4" d="M354.438,485.76c26.456,0,47.892,21.43,47.892,47.891c0,26.45-21.436,47.893-47.892,47.893
						c-26.443,0-47.886-21.442-47.886-47.893C306.552,507.189,327.995,485.76,354.438,485.76z"/>
				</g>
			</g>
			<g>
				<g>
					<path class="st4" d="M679.655,220.35l-8.338-65.491c-2.86-22.456-21.961-39.071-44.598-39.071h-61.526
						c-22.637,0-41.756,16.615-44.598,39.071l-8.351,65.617c-0.579,4.585,0.827,10.353,3.886,13.798
						c3.064,3.493,7.457,6.612,12.078,6.612h135.488c4.627,0,9.008-3.198,12.084-6.673
						C678.834,230.751,680.246,224.941,679.655,220.35z"/>
					<path class="st4" d="M595.944,5c26.455,0,47.897,21.424,47.897,47.885c0,26.45-21.442,47.892-47.897,47.892
						c-26.443,0-47.886-21.442-47.886-47.892C548.059,26.424,569.501,5,595.944,5z"/>
				</g>
			</g>
			<path class="st4" d="M438.563,239.203l-85,70.721l-85.001-70.721c-6.781-5.659-16.869-4.73-22.516,2.04
				c-5.635,6.805-4.712,16.875,2.076,22.504l89.46,74.468v87.708c0,8.833,7.156,15.988,15.982,15.988
				c8.827,0,15.976-7.155,15.976-15.988v-87.708l89.481-74.468c6.77-5.629,7.698-15.699,2.039-22.504
				c-3.161-3.795-7.698-5.762-12.271-5.762C445.15,235.481,441.536,236.706,438.563,239.203z"/>
		</g>
		<path class="st1" d="M185.544,329.291c62.045,0,112.338-50.299,112.338-112.344c0-62.04-50.293-112.338-112.338-112.338
			S73.206,154.907,73.206,216.947C73.206,278.992,123.499,329.291,185.544,329.291z"/>
		<path class="st2" d="M177.056,225.496c11.017,10.938,23.771,21.381,28.778,16.338c7.167-7.222,11.584-13.497,27.487-0.814
			c15.904,12.694,3.759,21.237-3.186,28.235c-8.006,8.072-38.015,0.561-67.771-28.959c-29.737-29.527-37.478-59.476-29.46-67.554
			c6.944-6.999,15.396-19.21,28.205-3.391c12.803,15.807,6.558,20.265-0.609,27.493
			C155.499,201.882,166.033,214.558,177.056,225.496z"/>
		<path class="st5" d="M679.788,329.291c62.045,0,112.338-50.299,112.338-112.344c0-62.04-50.293-112.338-112.338-112.338
			c-62.046,0-112.339,50.299-112.339,112.338C567.449,278.992,617.742,329.291,679.788,329.291z"/>
		<path class="st2" d="M679.745,204.911c-15.523,0.048-31.928,1.689-31.903,8.796c0.042,10.172,1.352,17.731-18.859,20.006
			c-20.224,2.275-17.678-12.356-17.714-22.214c-0.048-11.367,26.485-27.282,68.398-27.445c41.906-0.151,68.556,15.554,68.598,26.938
			c0.042,9.858,2.696,24.471-17.545,22.341c-20.229-2.124-18.968-9.695-19.011-19.874
			C711.686,206.358,695.275,204.85,679.745,204.911z"/>
		<path class="st5" d="M445.023,805c62.046,0,112.339-50.305,112.339-112.35c0-62.034-50.293-112.339-112.339-112.339
			c-62.048,0-112.341,50.305-112.341,112.339C332.682,754.695,382.975,805,445.023,805z"/>
		<path class="st2" d="M444.981,680.62c-15.523,0.048-31.928,1.688-31.903,8.796c0.042,10.172,1.351,17.726-18.863,20.006
			c-20.223,2.269-17.677-12.355-17.713-22.214c-0.048-11.366,26.486-27.282,68.402-27.451c41.906-0.145,68.555,15.554,68.597,26.944
			c0.043,9.858,2.697,24.471-17.544,22.335c-20.229-2.124-18.969-9.689-19.011-19.873
			C476.921,682.067,460.511,680.56,444.981,680.62z"/>
	</g>
</g>
<g id="_x39_" class="st9">
	<g class="st8">
		<polygon class="st7" points="805,735.906 805,779.539 5,779.539 5,30.461 48.633,30.461 48.633,735.914 805,735.914 805,735.906 
					"/>
		<path class="st1" d="M142.539,372.008c6.164,0,12.012-1.258,17.488-3.273l80.824,126.555
			c-11.215,10.617-18.293,25.531-18.293,42.188c0,32.117,26.047,58.172,58.176,58.172s58.18-26.055,58.18-58.172
			c0-8.922-2.164-17.258-5.738-24.813l106.113-77.555c8.273,7.055,18.836,11.453,30.539,11.453c12.938,0,24.641-5.227,33.172-13.641
			l108.531,67.883c-5.555,9.672-8.766,20.859-8.766,32.82c0,36.555,29.609,66.164,66.148,66.164
			c36.523,0,66.148-29.609,66.148-66.164c0-36.547-29.625-66.164-66.148-66.164c-16.641,0-31.813,6.188-43.438,16.344
			L514.422,414.32c1.602-4.742,2.656-9.742,2.656-15.031c0-26.109-21.156-47.273-47.25-47.273
			c-26.117,0-47.281,21.164-47.281,47.273c0,6.5,1.32,12.695,3.711,18.336l-105.945,77.406
			c-10.391-9.695-24.238-15.742-39.57-15.742c-7.609,0-14.844,1.563-21.516,4.227l-80.711-126.375
			c9.246-9.211,14.961-21.953,14.961-36.023c0-28.125-22.793-50.914-50.91-50.914c-28.121,0-50.914,22.789-50.914,50.914
			C91.648,349.242,114.426,372.008,142.539,372.008z"/>
	</g>
</g>
<g id="_x31_0" class="st9">
	<g class="st8">
		<g>
			<path class="st1" d="M563.953,159.844c0-76.938-55.094-140.953-127.984-154.844v89.797c0,17.109-13.859,30.977-30.969,30.977
				c-17.117,0-30.977-13.867-30.977-30.977V5c-72.883,13.891-127.977,77.906-127.977,154.844v171.75h317.906V159.844
				L563.953,159.844z"/>
			<path class="st1" d="M403.719,525.609h2.547c78.375,0,143.344-57.156,155.578-132.055H248.152
				C260.391,468.453,325.352,525.609,403.719,525.609z"/>
			<path class="st4" d="M643.914,232.484c-18.852,0-34.133,15.273-34.133,34.125v105.289c0,111.867-91,202.867-202.867,202.867
				h-3.828c-111.867,0-202.871-91-202.871-202.867V266.609c0-18.852-15.281-34.125-34.133-34.125
				c-18.848,0-34.137,15.273-34.137,34.125v105.289c0,138.602,104.551,253.227,238.926,269.211v95.625h-95.605
				c-18.848,0-34.125,15.281-34.125,34.133c0,18.844,15.277,34.133,34.125,34.133h259.469c18.852,0,34.133-15.289,34.133-34.133
				c0-18.852-15.281-34.133-34.133-34.133h-95.602v-95.625C573.508,625.125,678.055,510.5,678.055,371.898V266.609
				C678.047,247.766,662.766,232.484,643.914,232.484z"/>
		</g>
	</g>
</g>
<g id="_x31_1" class="st9">
	<g class="st8">
		<g id="Layer_1_1_">
			<g>
				<path class="st4" d="M803.396,347.448c-2.75-5.898-8.68-9.688-15.234-9.688h-49.82C706.67,165.87,555.718,35.206,374.804,35.206
					C170.914,35.206,5,201.089,5,404.995c0,203.91,165.89,369.799,369.804,369.799c131.593,0,254.296-70.843,320.257-184.812
					c9.304-16.094,3.82-36.641-12.289-45.938c-16.07-9.313-36.617-3.828-45.891,12.266
					c-53.992,93.281-154.422,151.25-262.078,151.25c-166.828,0-302.562-135.719-302.562-302.535
					c0-166.828,135.734-302.57,302.562-302.57c143.695,0,264.078,100.797,294.757,235.312h-49.43
					c-6.555,0-12.469,3.781-15.266,9.695c-2.758,5.906-1.859,12.867,2.328,17.883l84.039,100.871
					c3.195,3.813,7.922,6.016,12.937,6.016c4.984,0,9.711-2.234,12.898-6.016l84.039-100.871
					C805.295,360.315,806.178,353.354,803.396,347.448z"/>
				<path class="st1" d="M374.804,119.245c-18.578,0-33.617,15.063-33.617,33.609v203.984
					c-15.203,10.656-25.211,28.227-25.211,48.172c0,32.441,26.391,58.847,58.844,58.847c8.883,0,17.266-2.125,24.813-5.688
					l116.945,67.484c5.313,3.094,11.063,4.516,16.781,4.516c11.602,0,22.906-6.016,29.125-16.813
					c9.273-16.063,3.789-36.641-12.313-45.906L433.108,399.87c-1.563-17.766-10.805-33.289-24.656-43V152.854
					C408.421,134.308,393.351,119.245,374.804,119.245z M374.804,430.217c-13.906,0-25.211-11.344-25.211-25.207
					c0-13.891,11.32-25.195,25.211-25.195s25.211,11.305,25.211,25.195C400.015,418.873,388.695,430.217,374.804,430.217z"/>
			</g>
		</g>
	</g>
</g>
<g id="Layer_12">
	<g class="st9">
		<path class="st11" d="M493.6,316.596l-35.938,35.938l35.715,155.362c0.67,2.679-0.446,5.58-2.679,7.366l-28.572,21.43
			c-1.116,0.893-2.679,1.339-4.241,1.339c-0.446,0-0.893,0-1.563-0.224c-2.009-0.446-3.795-1.563-4.688-3.571L389.356,420.84
			l-57.814,57.814l11.831,43.305c0.669,2.456,0,4.911-1.786,6.92l-21.429,21.43c-1.339,1.339-3.349,2.009-5.134,2.009
			c-0.223,0-0.223,0-0.446,0c-2.232-0.224-4.018-1.116-5.357-2.902l-42.189-56.251l-56.251-42.189
			c-1.786-1.115-2.679-3.125-2.902-5.134s0.669-4.018,2.009-5.58l21.429-21.653c1.339-1.339,3.349-2.008,5.134-2.008
			c0.669,0,1.339,0,1.786,0.223l43.305,11.83l57.814-57.813L225.958,308.56c-2.009-1.116-3.349-3.125-3.795-5.357
			c-0.223-2.009,0.446-4.465,2.009-6.027l28.572-28.572c1.786-1.563,4.465-2.455,6.697-1.786l148.441,35.492l35.716-35.715
			c21.429-21.429,57.145-35.715,71.431-21.429S515.029,295.167,493.6,316.596z"/>
	</g>
	<path class="st4" d="M803.396,347.448c-2.75-5.898-8.68-9.688-15.234-9.688h-49.82C706.67,165.87,555.718,35.206,374.804,35.206
		C170.914,35.206,5,201.089,5,404.995c0,203.91,165.89,369.799,369.804,369.799c131.593,0,254.296-70.843,320.257-184.812
		c9.304-16.094,3.82-36.641-12.289-45.938c-16.07-9.313-36.617-3.828-45.891,12.266c-53.992,93.281-154.422,151.25-262.078,151.25
		c-166.828,0-302.562-135.719-302.562-302.535c0-166.828,135.734-302.57,302.562-302.57c143.695,0,264.078,100.797,294.757,235.312
		h-49.43c-6.555,0-12.469,3.781-15.266,9.695c-2.758,5.906-1.859,12.867,2.328,17.883l84.039,100.871
		c3.195,3.813,7.922,6.016,12.937,6.016c4.984,0,9.711-2.234,12.898-6.016l84.039-100.871
		C805.295,360.315,806.178,353.354,803.396,347.448z"/>
	<g>
		<g id="airplanemode-off">
			<path class="st1" d="M397,330V209c0-17.6-15.399-33-33-33c-17.6,0-33,15.4-33,33v81.4L502.601,462L573,484v-44L397,330z
				 M177,248.6l110,110L155,440v44l176-55v121l-44,33v33l77-22l77,22v-33l-44-33v-81.399L522.399,594L551,565.399L205.6,220
				L177,248.6z"/>
		</g>
	</g>
</g>
</svg>
